<?xml version="1.0" encoding="UTF-8" standalone="no" ?>
<!DOCTYPE svg PUBLIC "-//W3C//DTD SVG 1.1//EN" "http://www.w3.org/Graphics/SVG/1.1/DTD/svg11.dtd">
<svg xmlns="http://www.w3.org/2000/svg" xmlns:xlink="http://www.w3.org/1999/xlink" version="1.1" width="640" height="640" viewBox="0 0 640 640" xml:space="preserve">
<desc>Created with Fabric.js 4.6.0</desc>
<defs>
</defs>
<g transform="matrix(2.04 -0.95 0.14 0.31 200.32 375.81)" id="3hPfLFdRcN8ftpnm8dJry"  >
<path style="stroke: rgb(253,155,203); stroke-width: 0; stroke-dasharray: none; stroke-linecap: butt; stroke-dashoffset: 0; stroke-linejoin: miter; stroke-miterlimit: 4; fill: rgb(0,0,0); fill-rule: nonzero; opacity: 1;" vector-effect="non-scaling-stroke"  transform=" translate(0, 0)" d="M -35.59511 8.82173 C -35.59511 -15.709010000000001 -32.590019999999996 -35.59511 -28.88306 -35.59511 L 28.88306 -35.59511 L 28.88306 -35.59511 C 32.59002 -35.59511 35.59511 -15.709019999999999 35.59511 8.821730000000002 L 35.59511 8.821730000000002 L 35.59511 8.821730000000002 C 35.59511 23.60826 33.783719999999995 35.5951 31.549249999999997 35.5951 L -31.549250000000004 35.5951 L -31.549250000000004 35.5951 C -33.783710000000006 35.5951 -35.595110000000005 23.60825 -35.595110000000005 8.821730000000002 z" stroke-linecap="round" />
</g>
<g transform="matrix(2.08 -0.97 0.14 0.31 440.36 263.88)" id="D-MXX86kWeQ9AjahvYync"  >
<path style="stroke: rgb(253,155,203); stroke-width: 0; stroke-dasharray: none; stroke-linecap: butt; stroke-dashoffset: 0; stroke-linejoin: miter; stroke-miterlimit: 4; fill: rgb(0,0,0); fill-rule: nonzero; opacity: 1;" vector-effect="non-scaling-stroke"  transform=" translate(0, 0)" d="M -35.59511 8.45733 C -35.59511 -15.87216 -32.64259 -35.5951 -29.00047 -35.5951 L 29.000459999999997 -35.5951 L 29.000459999999997 -35.5951 C 32.642579999999995 -35.5951 35.595099999999995 -15.872150000000001 35.595099999999995 8.457329999999999 L 35.595099999999995 8.457329999999999 L 35.595099999999995 8.457329999999999 C 35.595099999999995 23.44511 33.77625 35.59511 31.532579999999996 35.59511 L -31.532590000000006 35.59511 L -31.532590000000006 35.59511 C -33.77626000000001 35.59511 -35.595110000000005 23.44511 -35.595110000000005 8.457329999999999 z" stroke-linecap="round" />
</g>
<g transform="matrix(0.91 -0.42 0.42 0.91 350.96 386.4)" id="kF4o9NSu-6XYJVTVEcLs3"  >
<path style="stroke: rgb(236,145,152); stroke-width: 0; stroke-dasharray: none; stroke-linecap: butt; stroke-dashoffset: 0; stroke-linejoin: miter; stroke-miterlimit: 4; fill: rgb(0,0,0); fill-rule: nonzero; opacity: 1;" vector-effect="non-scaling-stroke"  transform=" translate(-221.76, -148.5)" d="M 221.75751 297.00404 C 99.34737 297.00404 0 197.65668 0 75.24652999999998 C 0 48.83531999999998 4.62485 23.497749999999982 13.10835 -2.842170943040401e-14 L 13.10835 75.30081999999997 L 22.29902 75.30081999999997 C 22.298969999999997 75.35936999999997 22.298939999999998 75.41792999999997 22.298939999999998 75.47649999999997 C 22.298939999999998 185.70457 111.7594 275.16504 221.98747999999998 275.16504 C 332.21555 275.16504 421.67602 185.70457999999996 421.67602 75.47649999999999 C 421.67602 75.41792999999998 421.67599 75.35936999999998 421.67593999999997 75.30081999999999 L 443.51500999999996 75.30081999999999 C 443.48564 197.68604 344.14955999999995 297.00404 221.75750999999997 297.00404 z" stroke-linecap="round" />
</g>
<g transform="matrix(0.91 -0.42 0.42 0.91 279.09 216.77)" id="_ySdMgFGMSu_Z6qE07XGG"  >
<path style="stroke: rgb(1,236,155); stroke-width: 0; stroke-dasharray: none; stroke-linecap: butt; stroke-dashoffset: 0; stroke-linejoin: miter; stroke-miterlimit: 4; fill: rgb(0,0,0); fill-rule: nonzero; opacity: 1;" vector-effect="non-scaling-stroke"  transform=" translate(-215.2, -110.91)" d="M 208.64916 0 C 331.0593 0 430.40666999999996 99.34736 430.40666999999996 221.75751 C 430.40666999999996 221.77561 430.40666999999996 221.7937 430.40666 221.8118 L 408.56759 221.8118 C 408.4726 111.66437 319.04864 22.298940000000016 208.87913 22.298940000000016 C 98.70963 22.298940000000016 9.285660000000007 111.66436000000002 9.190670000000011 221.8118 L 1.0658141036401503e-14 221.8118 L 1.0658141036401503e-14 146.51098000000002 C 30.835640000000012 61.10185000000001 112.65022000000002 2.842170943040401e-14 208.64916 2.842170943040401e-14 z" stroke-linecap="round" />
</g>
<g transform="matrix(0.91 -0.42 0.42 0.9 277.87 229.11)" id="xu9ML0CS97r7QedALlu2P"  >
<path style="stroke: rgb(1,236,155); stroke-width: 0; stroke-dasharray: none; stroke-linecap: butt; stroke-dashoffset: 0; stroke-linejoin: miter; stroke-miterlimit: 4; fill: rgb(247,47,58); fill-rule: nonzero; opacity: 1;" vector-effect="non-scaling-stroke"  transform=" translate(0, 0)" d="M 0 -99.75643 C 110.16951 -99.75643 199.59347 -10.390999999999991 199.68846 99.75643 L 50.22602999999998 99.75643 C 50.22604999999998 99.73760999999999 50.22605999999998 99.7188 50.22605999999998 99.69998 C 50.22605999999998 71.84822 27.62172999999998 49.24388999999999 -0.2300300000000206 49.24388999999999 C -28.08179000000002 49.24388999999999 -50.686120000000024 71.84822 -50.686120000000024 99.69998 C -50.686120000000024 99.7188 -50.68611000000002 99.73761999999999 -50.68609000000002 99.75643 L -199.68847 99.75643 C -199.59348 -10.391010000000009 -110.16950999999999 -99.75643 -0.000010000000003174137 -99.75643 z" stroke-linecap="round" />
</g>
<g transform="matrix(0.91 -0.42 0.42 0.91 320 320)" id="9vcIA8ISmm--W9CdouCp_"  >
<path style="stroke: rgb(90,44,199); stroke-width: 0; stroke-dasharray: none; stroke-linecap: butt; stroke-dashoffset: 0; stroke-linejoin: miter; stroke-miterlimit: 4; fill: rgb(0,0,0); fill-rule: nonzero; opacity: 1;" vector-effect="non-scaling-stroke"  transform=" translate(-63.76, -63.76)" d="M 63.76154 0 C 98.95791 0 127.52308 28.56517 127.52308 63.76154 C 127.52308 98.95791 98.95791 127.52308 63.76154 127.52308 C 28.565169999999995 127.52308 0 98.95791 0 63.76154 C 0 28.565169999999995 28.56517 0 63.76154 0 z M 13.30546 63.76155 C 13.30546 91.61331 35.90979 114.21764 63.76155 114.21764 C 91.61331 114.21764 114.21764 91.61331 114.21764 63.76155 C 114.21764 35.90979 91.61331 13.305459999999997 63.76155 13.305459999999997 C 35.90979 13.305459999999997 13.305459999999997 35.90979 13.305459999999997 63.76155 z" stroke-linecap="round" />
</g>
</svg>